<?xml version="1.0" encoding="utf-8"?>
<!-- Generator: Adobe Illustrator 26.3.1, SVG Export Plug-In . SVG Version: 6.00 Build 0)  -->
<svg version="1.1" id="Layer_1" xmlns="http://www.w3.org/2000/svg" xmlns:xlink="http://www.w3.org/1999/xlink" x="0px" y="0px"
	 viewBox="0 0 512 512" style="enable-background:new 0 0 512 512;" xml:space="preserve">
<style type="text/css">
	.st0{fill-rule:evenodd;clip-rule:evenodd;}
</style>
<g>
	<path class="st0" d="M409.6,76.8c0-33.08,51.2-34.61,51.2,0C460.8,110.08,409.6,111.28,409.6,76.8 M256,460.8
		c-112.92,0-204.8-91.88-204.8-204.8S143.08,51.2,256,51.2c37.43,0,72.4,10.26,102.63,27.85c1.2,40.58,33.74,73.12,74.32,74.32
		c17.59,30.24,27.85,65.21,27.85,102.63C460.8,368.92,368.92,460.8,256,460.8 M512,76.8C512,34.38,477.62,0,435.2,0
		c-24.47,0-46.03,11.68-60.08,29.49C339.53,10.73,299.03,0,256,0C114.61,0,0,114.61,0,256s114.61,256,256,256
		c141.39,0,256-114.61,256-256c0-43.03-10.73-83.51-29.49-119.12C500.33,122.83,512,101.28,512,76.8 M256,332.8
		c-42.34,0-76.8-34.46-76.8-76.8s34.46-76.8,76.8-76.8c42.34,0,76.8,34.46,76.8,76.8S298.34,332.8,256,332.8 M256,128
		c-70.68,0-128,57.32-128,128s57.32,128,128,128c70.68,0,128-57.32,128-128S326.68,128,256,128"/>
</g>
</svg>
