<?xml version="1.0" encoding="utf-8"?>
<!-- Generator: Adobe Illustrator 21.0.0, SVG Export Plug-In . SVG Version: 6.00 Build 0)  -->
<svg version="1.1" id="Layer_1" xmlns="http://www.w3.org/2000/svg" xmlns:xlink="http://www.w3.org/1999/xlink" x="0px" y="0px"
	 viewBox="0 0 512 512" style="enable-background:new 0 0 512 512;" xml:space="preserve">
<path d="M509.7,371c-1.2-3.8-2.7-7.6-4.6-11.3c-3.3-6.6-7.5-13.2-12.7-20c-7.7-10.3-17.5-21-29.1-32.3c-9.7-9.5-20.7-19.2-32.8-29.2
	c0.9-7.3,1.4-14.7,1.4-22.2c0-24.3-4.9-47.4-13.8-68.5c-13.4-31.6-35.7-58.4-63.7-77.4c-28.1-19-62-30.1-98.4-30.1
	c-24.3,0-47.4,4.9-68.5,13.8c-13.8,5.8-26.7,13.4-38.4,22.3c-19.3-7.2-37.3-12.9-53.5-16.8c-9-2.2-17.5-3.9-25.5-5.1
	s-15.4-1.8-22.4-1.8c-4.4,0-8.6,0.3-12.6,0.8c-3,0.4-6,1-8.9,1.9c-4.3,1.3-8.5,3.1-12.3,5.8c-1.9,1.3-3.7,2.9-5.4,4.6
	c-1.7,1.8-3.1,3.7-4.4,5.9c-1.5,2.6-2.6,5.4-3.3,8.3c-0.7,2.9-1,5.7-1,8.6c0,3.9,0.6,7.6,1.5,11.3c1.8,6.9,4.9,13.5,8.9,20.2
	c3.5,5.9,7.8,11.9,12.8,18.1c8.7,10.8,19.6,22.3,32.4,34.2c7.9,7.4,16.6,14.9,25.9,22.6c-0.8,7-1.3,14-1.3,21.2
	c0,24.3,4.9,47.4,13.8,68.5c13.4,31.6,35.7,58.4,63.7,77.4c28.1,19,62,30.1,98.4,30.1c24.3,0,47.4-4.9,68.5-13.8
	c13.4-5.7,26-13,37.5-21.7c19.8,7.3,38.1,13.2,54.7,17.2c8.9,2.2,17.3,3.9,25.2,5c7.9,1.1,15.2,1.8,22.1,1.8c4.4,0,8.6-0.3,12.6-0.8
	c3-0.4,6-1,8.9-1.9c4.3-1.3,8.5-3.1,12.3-5.8c1.9-1.3,3.7-2.9,5.4-4.6c1.7-1.8,3.1-3.7,4.4-5.9c1.5-2.6,2.6-5.4,3.3-8.3
	c0.7-2.9,1-5.7,1-8.6C511.8,379.8,511,375.4,509.7,371z M213.2,118.5c13.5-4.2,27.9-6.5,42.8-6.5c19.9,0,38.8,4,56,11.3
	c25.8,10.9,47.8,29.2,63.4,52.2c7.8,11.5,13.9,24.2,18.1,37.7s6.5,27.9,6.5,42.8c0,19.9-4,38.8-11.3,56c-7.6,17.9-18.7,34-32.6,47.4
	c-10.1-4-20.5-8.5-31.2-13.3c-29.4-13.3-61-29.5-93.3-48c-29.7-17.1-57.3-34.8-82-52.1c-11.8-8.3-23-16.6-33.4-24.7
	c1.8-7.3,4.2-14.5,7.1-21.3c10.9-25.8,29.2-47.8,52.2-63.4C187,128.8,199.7,122.7,213.2,118.5z M69.7,181.1
	c-13-12.7-22.9-24.3-29.3-33.9c-3.2-4.8-5.4-9-6.8-12.4c-0.7-1.7-1.1-3.1-1.4-4.3c-0.3-1.2-0.3-2-0.3-2.6c0-0.3,0-0.5,0.1-0.7
	c0.1-0.1,0.3-0.3,0.7-0.4c0.9-0.5,2.6-1.2,5.1-1.6c2.5-0.5,5.9-0.8,9.9-0.8c5,0,11,0.5,17.7,1.5c10.1,1.5,22,4.2,35.3,7.9
	c7.1,2,14.5,4.4,22.2,7c-4.6,5.3-8.9,10.9-12.8,16.7c-8.7,12.8-15.7,26.8-20.8,41.8C82.2,193,75.6,186.9,69.7,181.1z M298.8,393.5
	c-13.5,4.2-27.9,6.5-42.8,6.5c-19.9,0-38.8-4-56-11.3c-25.8-10.9-47.8-29.2-63.4-52.2c-7.8-11.5-13.9-24.2-18.1-37.7
	c-3.9-12.7-6.2-26.1-6.4-40.1c4.3,3.2,8.7,6.4,13.1,9.6c27,19.3,57.4,38.9,90.3,57.8c38.4,22.1,75.9,40.9,110.4,55.8
	C317.4,386.6,308.3,390.6,298.8,393.5z M474,387.2c-2.5,0.5-5.9,0.8-9.9,0.8c-4.9,0-10.8-0.5-17.5-1.4c-11.7-1.7-25.7-5-41.4-9.7
	c-5.4-1.6-10.9-3.4-16.6-5.4c4.7-5.4,9.2-11.1,13.2-17.1c8.6-12.8,15.6-26.8,20.7-41.6c5.1,4.5,10,8.8,14.5,13.1
	c7.3,6.9,13.8,13.5,19.4,19.8c8.4,9.3,14.7,17.8,18.5,24.7c2,3.4,3.3,6.4,4.1,8.8c0.8,2.4,1,4.1,1,5c0,0.5-0.1,0.7-0.1,0.8l0.1,0
	c-0.1,0.1-0.3,0.3-0.9,0.6C478.2,386.1,476.5,386.8,474,387.2z"/>
</svg>
